<svg width="29" height="29" viewBox="0 0 29 29" fill="none" xmlns="http://www.w3.org/2000/svg">
<path d="M8.25985 3.95316L14.1429 0.618672L20.0259 3.95317L25.8551 7.38076L25.9089 14.1429L25.8551 20.9049L20.0259 24.3325L14.1429 27.667L8.25984 24.3325L2.43057 20.9049L2.37682 14.1429L2.43057 7.38076L8.25985 3.95316Z" fill="#FFE6A6" stroke="white" stroke-width="1.07646"/>
<path d="M14.1427 3.44949L18.7943 6.08603L23.4034 8.79618L23.4459 14.1429L23.4034 19.4896L18.7943 22.1997L14.1427 24.8363L9.49104 22.1997L4.88192 19.4896L4.83942 14.1429L4.88192 8.79618L9.49104 6.08603L14.1427 3.44949Z" fill="#FFCA42"/>
<path d="M13.7609 17.4196H8.9366V16.4625L11.2134 14.0358C11.526 13.6942 11.7564 13.3961 11.9047 13.1415C12.0561 12.887 12.1319 12.6453 12.1319 12.4164C12.1319 12.1038 12.0529 11.8589 11.895 11.6817C11.7371 11.5012 11.5115 11.411 11.2182 11.411C10.9024 11.411 10.6527 11.5205 10.469 11.7397C10.2885 11.9556 10.1983 12.2408 10.1983 12.5953H8.79641C8.79641 12.1667 8.89792 11.7751 9.10095 11.4206C9.3072 11.0662 9.59724 10.789 9.97107 10.5892C10.3449 10.3862 10.7687 10.2847 11.2424 10.2847C11.9675 10.2847 12.5299 10.4587 12.9295 10.8067C13.3323 11.1548 13.5337 11.6462 13.5337 12.2811C13.5337 12.6291 13.4435 12.9836 13.263 13.3446C13.0825 13.7055 12.7732 14.1261 12.3349 14.6062L10.7348 16.2933H13.7609V17.4196ZM14.8292 13.9585L15.2353 10.3813H19.1798V11.5463H16.3809L16.2069 13.0594C16.5388 12.8821 16.8917 12.7935 17.2656 12.7935C17.9359 12.7935 18.4612 13.0014 18.8414 13.4171C19.2217 13.8328 19.4118 14.4145 19.4118 15.1621C19.4118 15.6165 19.3152 16.0242 19.1218 16.3851C18.9317 16.7429 18.6577 17.0216 18.3 17.2214C17.9423 17.418 17.5201 17.5163 17.0335 17.5163C16.6081 17.5163 16.2134 17.4309 15.8492 17.2601C15.485 17.0861 15.1966 16.8428 14.9839 16.5302C14.7744 16.2176 14.6633 15.8615 14.6504 15.4619H16.0329C16.0619 15.7551 16.1634 15.9839 16.3374 16.1483C16.5147 16.3094 16.7451 16.39 17.0287 16.39C17.3445 16.39 17.5878 16.2772 17.7586 16.0516C17.9294 15.8228 18.0148 15.5005 18.0148 15.0848C18.0148 14.6852 17.9165 14.379 17.7199 14.1663C17.5234 13.9537 17.2446 13.8473 16.8837 13.8473C16.5517 13.8473 16.2826 13.9343 16.0764 14.1083L15.941 14.234L14.8292 13.9585Z" fill="white"/>
</svg>
